<svg width="178" height="49" viewBox="0 0 178 49" fill="none" xmlns="http://www.w3.org/2000/svg">
<path fill-rule="evenodd" clip-rule="evenodd" d="M59.2656 4.13281C59.7396 4.48177 60.0078 4.97135 60.0703 5.60156H63.3125C63.2969 4.64844 63.0417 3.8099 62.5469 3.08594C62.0521 2.36198 61.3594 1.79688 60.4688 1.39063C59.5833 0.984375 58.5469 0.78125 57.3594 0.78125C56.1927 0.78125 55.151 0.984375 54.2344 1.39063C53.3177 1.79688 52.5964 2.36198 52.0703 3.08594C51.5495 3.8099 51.2917 4.65625 51.2969 5.625C51.2917 6.80729 51.6797 7.7474 52.4609 8.44531C53.2422 9.14323 54.3073 9.65625 55.6562 9.98438L57.3984 10.4219C57.9818 10.5625 58.474 10.7188 58.875 10.8906C59.2812 11.0625 59.5885 11.2708 59.7969 11.5156C60.0104 11.7604 60.1172 12.0625 60.1172 12.4219C60.1172 12.8073 60 13.1484 59.7656 13.4453C59.5312 13.7422 59.2005 13.974 58.7734 14.1406C58.3516 14.3073 57.8542 14.3906 57.2812 14.3906C56.6979 14.3906 56.1745 14.3021 55.7109 14.125C55.2526 13.9427 54.8854 13.6745 54.6094 13.3203C54.3385 12.9609 54.1849 12.513 54.1484 11.9766H50.875C50.901 13.1276 51.1797 14.0938 51.7109 14.875C52.2474 15.651 52.9922 16.237 53.9453 16.6328C54.9036 17.0286 56.0286 17.2266 57.3203 17.2266C58.6224 17.2266 59.7344 17.0312 60.6562 16.6406C61.5833 16.2448 62.2917 15.6901 62.7812 14.9766C63.276 14.2578 63.526 13.4089 63.5312 12.4297C63.526 11.763 63.4036 11.1719 63.1641 10.6563C62.9297 10.1406 62.599 9.69271 62.1719 9.3125C61.7448 8.93229 61.2396 8.61198 60.6562 8.35156C60.0729 8.09115 59.4323 7.88281 58.7344 7.72656L57.2969 7.38281C56.9479 7.30469 56.6198 7.21094 56.3125 7.10156C56.0052 6.98698 55.7344 6.85417 55.5 6.70313C55.2656 6.54688 55.0807 6.36198 54.9453 6.14844C54.8151 5.9349 54.7552 5.6849 54.7656 5.39844C54.7656 5.05469 54.8646 4.7474 55.0625 4.47656C55.2656 4.20573 55.5573 3.99479 55.9375 3.84375C56.3177 3.6875 56.7839 3.60938 57.3359 3.60938C58.1484 3.60938 58.7917 3.78385 59.2656 4.13281ZM68.0254 16.4844C68.916 16.9844 69.9785 17.2344 71.2129 17.2344C72.2025 17.2344 73.0749 17.0833 73.8301 16.7813C74.5905 16.474 75.2103 16.0469 75.6895 15.5C76.1738 14.9479 76.4941 14.3021 76.6504 13.5625L73.5723 13.3594C73.4577 13.6615 73.291 13.9167 73.0723 14.125C72.8535 14.3333 72.5905 14.4896 72.2832 14.5938C71.9759 14.6979 71.6374 14.75 71.2676 14.75C70.7103 14.75 70.2285 14.6328 69.8223 14.3984C69.416 14.1641 69.1009 13.8307 68.877 13.3984C68.6582 12.9661 68.5488 12.4531 68.5488 11.8594V11.8516H76.7207V10.9375C76.7207 9.91667 76.5775 9.02604 76.291 8.26563C76.0046 7.5 75.6035 6.86458 75.0879 6.35938C74.5775 5.85417 73.9785 5.47656 73.291 5.22656C72.6087 4.97136 71.8717 4.84375 71.0801 4.84375C69.903 4.84375 68.877 5.10417 68.002 5.625C67.1322 6.14583 66.4577 6.8724 65.9785 7.80469C65.4994 8.73698 65.2598 9.82031 65.2598 11.0547C65.2598 12.3203 65.4994 13.4167 65.9785 14.3438C66.4577 15.2656 67.14 15.9792 68.0254 16.4844ZM68.552 9.78906C68.572 9.35816 68.683 8.96493 68.8848 8.60938C69.1035 8.21875 69.4056 7.90885 69.791 7.67969C70.1816 7.44531 70.6296 7.32813 71.1348 7.32813C71.6191 7.32813 72.0436 7.4349 72.4082 7.64844C72.778 7.85677 73.0671 8.14583 73.2754 8.51563C73.4837 8.88542 73.5879 9.3099 73.5879 9.78906H68.552ZM78.8926 5V17H82.2207V10.2109C82.2207 9.72136 82.3301 9.28906 82.5488 8.91406C82.7728 8.53906 83.0749 8.2474 83.4551 8.03906C83.8405 7.82552 84.278 7.71875 84.7676 7.71875C84.9967 7.71875 85.2494 7.73698 85.5254 7.77344C85.8014 7.8099 86.0176 7.85156 86.1738 7.89844V4.94531C86.028 4.90885 85.8587 4.88021 85.666 4.85938C85.4733 4.83854 85.2936 4.82813 85.127 4.82813C84.4551 4.82813 83.8613 5.02083 83.3457 5.40625C82.8301 5.78646 82.4629 6.34896 82.2441 7.09375H82.1191V5H78.8926ZM95.252 17L99.4473 5H95.9238L93.4395 13.5859H93.3145L90.8223 5H87.3066L91.502 17H95.252ZM101.15 5V17H104.479V5H101.15ZM101.549 2.96094C101.903 3.28906 102.327 3.45313 102.822 3.45313C103.317 3.45313 103.739 3.28906 104.088 2.96094C104.442 2.6276 104.619 2.22917 104.619 1.76563C104.619 1.30729 104.442 0.914063 104.088 0.585938C103.739 0.252605 103.317 0.0859375 102.822 0.0859375C102.327 0.0859375 101.903 0.252605 101.549 0.585938C101.2 0.914063 101.025 1.30729 101.025 1.76563C101.025 2.22917 101.2 2.6276 101.549 2.96094ZM109.395 16.4531C110.28 16.974 111.337 17.2344 112.566 17.2344C113.634 17.2344 114.559 17.0391 115.34 16.6484C116.121 16.2578 116.733 15.7161 117.176 15.0234C117.624 14.3255 117.874 13.5182 117.926 12.6016H114.785C114.723 13.0234 114.59 13.3854 114.387 13.6875C114.189 13.9844 113.936 14.2109 113.629 14.3672C113.327 14.5234 112.986 14.6016 112.605 14.6016C112.09 14.6016 111.639 14.4609 111.254 14.1797C110.868 13.8984 110.569 13.4896 110.355 12.9531C110.147 12.4167 110.043 11.7656 110.043 11C110.043 10.2448 110.15 9.60156 110.363 9.07031C110.577 8.53906 110.874 8.13542 111.254 7.85938C111.639 7.57813 112.09 7.4375 112.605 7.4375C113.215 7.4375 113.707 7.6224 114.082 7.99219C114.462 8.35677 114.697 8.83854 114.785 9.4375H117.926C117.879 8.51042 117.626 7.70313 117.168 7.01563C116.71 6.32813 116.087 5.79427 115.301 5.41406C114.514 5.03385 113.598 4.84375 112.551 4.84375C111.337 4.84375 110.29 5.10677 109.41 5.63281C108.53 6.15365 107.85 6.88021 107.371 7.8125C106.897 8.73958 106.66 9.81771 106.66 11.0469C106.66 12.2604 106.895 13.3333 107.363 14.2656C107.837 15.1979 108.514 15.9271 109.395 16.4531ZM122.338 16.4844C123.229 16.9844 124.291 17.2344 125.525 17.2344C126.515 17.2344 127.387 17.0833 128.143 16.7813C128.903 16.474 129.523 16.0469 130.002 15.5C130.486 14.9479 130.807 14.3021 130.963 13.5625L127.885 13.3594C127.77 13.6615 127.604 13.9167 127.385 14.125C127.166 14.3333 126.903 14.4896 126.596 14.5938C126.288 14.6979 125.95 14.75 125.58 14.75C125.023 14.75 124.541 14.6328 124.135 14.3984C123.729 14.1641 123.413 13.8307 123.189 13.3984C122.971 12.9661 122.861 12.4531 122.861 11.8594V11.8516H131.033V10.9375C131.033 9.91667 130.89 9.02604 130.604 8.26563C130.317 7.5 129.916 6.86458 129.4 6.35938C128.89 5.85417 128.291 5.47656 127.604 5.22656C126.921 4.97136 126.184 4.84375 125.393 4.84375C124.215 4.84375 123.189 5.10417 122.314 5.625C121.445 6.14583 120.77 6.8724 120.291 7.80469C119.812 8.73698 119.572 9.82031 119.572 11.0547C119.572 12.3203 119.812 13.4167 120.291 14.3438C120.77 15.2656 121.452 15.9792 122.338 16.4844ZM122.864 9.78906C122.885 9.35816 122.995 8.96493 123.197 8.60938C123.416 8.21875 123.718 7.90885 124.104 7.67969C124.494 7.44531 124.942 7.32813 125.447 7.32813C125.932 7.32813 126.356 7.4349 126.721 7.64844C127.09 7.85677 127.38 8.14583 127.588 8.51563C127.796 8.88542 127.9 9.3099 127.9 9.78906H122.864ZM50.5234 44H54.1484L55.3353 40.3516H61.1123L62.2969 44H65.9219L60.4062 28H56.0469L50.5234 44ZM60.2549 37.7109L58.2891 31.6562H58.1641L56.1944 37.7109H60.2549ZM74.4434 35.6094L77.4902 35.4219C77.3444 34.3177 76.834 33.4453 75.959 32.8047C75.0892 32.1641 73.8965 31.8438 72.3809 31.8438C71.3548 31.8438 70.459 31.9948 69.6934 32.2969C68.9329 32.599 68.3418 33.0286 67.9199 33.5859C67.5033 34.1432 67.2949 34.8073 67.2949 35.5781C67.2949 36.474 67.5788 37.2109 68.1465 37.7891C68.7194 38.3672 69.5918 38.7734 70.7637 39.0078L72.8418 39.4219C73.3626 39.526 73.748 39.6771 73.998 39.875C74.248 40.0677 74.3756 40.3151 74.3809 40.6172C74.3756 40.9766 74.1934 41.2708 73.834 41.5C73.4798 41.724 73.0111 41.8359 72.4277 41.8359C71.834 41.8359 71.347 41.7109 70.9668 41.4609C70.5866 41.2057 70.347 40.8359 70.248 40.3516L66.9746 40.5234C67.1361 41.6693 67.6855 42.5755 68.623 43.2422C69.5658 43.9036 70.8314 44.2344 72.4199 44.2344C73.4616 44.2344 74.3809 44.0703 75.1777 43.7422C75.9798 43.4089 76.61 42.9453 77.0684 42.3516C77.5319 41.7578 77.7637 41.0677 77.7637 40.2812C77.7637 39.4167 77.4772 38.7188 76.9043 38.1875C76.3314 37.6562 75.4616 37.2708 74.2949 37.0312L72.123 36.5938C71.5658 36.474 71.1725 36.3151 70.9434 36.1172C70.7142 35.9193 70.5996 35.6771 70.5996 35.3906C70.5996 35.0312 70.7767 34.7448 71.1309 34.5312C71.485 34.3125 71.9199 34.2031 72.4355 34.2031C72.821 34.2031 73.1517 34.2682 73.4277 34.3984C73.709 34.5234 73.9355 34.6927 74.1074 34.9062C74.2793 35.1146 74.3913 35.349 74.4434 35.6094ZM86.7969 35.6094L89.8438 35.4219C89.6979 34.3177 89.1875 33.4453 88.3125 32.8047C87.4427 32.1641 86.25 31.8438 84.7344 31.8438C83.7083 31.8438 82.8125 31.9948 82.0469 32.2969C81.2865 32.599 80.6953 33.0286 80.2734 33.5859C79.8568 34.1432 79.6484 34.8073 79.6484 35.5781C79.6484 36.474 79.9323 37.2109 80.5 37.7891C81.0729 38.3672 81.9453 38.7734 83.1172 39.0078L85.1953 39.4219C85.7161 39.526 86.1016 39.6771 86.3516 39.875C86.6016 40.0677 86.7292 40.3151 86.7344 40.6172C86.7292 40.9766 86.5469 41.2708 86.1875 41.5C85.8333 41.724 85.3646 41.8359 84.7812 41.8359C84.1875 41.8359 83.7005 41.7109 83.3203 41.4609C82.9401 41.2057 82.7005 40.8359 82.6016 40.3516L79.3281 40.5234C79.4896 41.6693 80.0391 42.5755 80.9766 43.2422C81.9193 43.9036 83.1849 44.2344 84.7734 44.2344C85.8151 44.2344 86.7344 44.0703 87.5312 43.7422C88.3333 43.4089 88.9635 42.9453 89.4219 42.3516C89.8854 41.7578 90.1172 41.0677 90.1172 40.2812C90.1172 39.4167 89.8307 38.7188 89.2578 38.1875C88.6849 37.6562 87.8151 37.2708 86.6484 37.0312L84.4766 36.5938C83.9193 36.474 83.526 36.3151 83.2969 36.1172C83.0677 35.9193 82.9531 35.6771 82.9531 35.3906C82.9531 35.0312 83.1302 34.7448 83.4844 34.5312C83.8385 34.3125 84.2734 34.2031 84.7891 34.2031C85.1745 34.2031 85.5052 34.2682 85.7812 34.3984C86.0625 34.5234 86.2891 34.6927 86.4609 34.9062C86.6328 35.1146 86.7448 35.349 86.7969 35.6094ZM92.2129 32V44H95.541V32H92.2129ZM92.6113 29.9609C92.9655 30.2891 93.39 30.4531 93.8848 30.4531C94.3796 30.4531 94.8014 30.2891 95.1504 29.9609C95.5046 29.6276 95.6816 29.2292 95.6816 28.7656C95.6816 28.3073 95.5046 27.9141 95.1504 27.5859C94.8014 27.2526 94.3796 27.0859 93.8848 27.0859C93.39 27.0859 92.9655 27.2526 92.6113 27.5859C92.2624 27.9141 92.0879 28.3073 92.0879 28.7656C92.0879 29.2292 92.2624 29.6276 92.6113 29.9609ZM105.145 35.6094L108.191 35.4219C108.046 34.3177 107.535 33.4453 106.66 32.8047C105.79 32.1641 104.598 31.8438 103.082 31.8438C102.056 31.8438 101.16 31.9948 100.395 32.2969C99.6341 32.599 99.043 33.0286 98.6211 33.5859C98.2044 34.1432 97.9961 34.8073 97.9961 35.5781C97.9961 36.474 98.2799 37.2109 98.8477 37.7891C99.4206 38.3672 100.293 38.7734 101.465 39.0078L103.543 39.4219C104.064 39.526 104.449 39.6771 104.699 39.875C104.949 40.0677 105.077 40.3151 105.082 40.6172C105.077 40.9766 104.895 41.2708 104.535 41.5C104.181 41.724 103.712 41.8359 103.129 41.8359C102.535 41.8359 102.048 41.7109 101.668 41.4609C101.288 41.2057 101.048 40.8359 100.949 40.3516L97.6758 40.5234C97.8372 41.6693 98.3867 42.5755 99.3242 43.2422C100.267 43.9036 101.533 44.2344 103.121 44.2344C104.163 44.2344 105.082 44.0703 105.879 43.7422C106.681 43.4089 107.311 42.9453 107.77 42.3516C108.233 41.7578 108.465 41.0677 108.465 40.2812C108.465 39.4167 108.178 38.7188 107.605 38.1875C107.033 37.6562 106.163 37.2708 104.996 37.0312L102.824 36.5938C102.267 36.474 101.874 36.3151 101.645 36.1172C101.415 35.9193 101.301 35.6771 101.301 35.3906C101.301 35.0312 101.478 34.7448 101.832 34.5312C102.186 34.3125 102.621 34.2031 103.137 34.2031C103.522 34.2031 103.853 34.2682 104.129 34.3984C104.41 34.5234 104.637 34.6927 104.809 34.9062C104.98 35.1146 105.092 35.349 105.145 35.6094ZM116.943 34.5V32H114.686V29.125H111.357V32H109.717V34.5H111.357V40.75C111.352 41.5365 111.516 42.1875 111.85 42.7031C112.183 43.2188 112.649 43.599 113.248 43.8438C113.852 44.0885 114.555 44.1953 115.357 44.1641C115.79 44.1484 116.157 44.1042 116.459 44.0312C116.761 43.9635 116.995 43.9036 117.162 43.8516L116.639 41.375C116.555 41.3906 116.436 41.4141 116.279 41.4453C116.123 41.4714 115.967 41.4844 115.811 41.4844C115.587 41.4844 115.389 41.4505 115.217 41.3828C115.05 41.3151 114.92 41.1979 114.826 41.0312C114.732 40.8594 114.686 40.6198 114.686 40.3125V34.5H116.943ZM120.486 43.8281C121.085 44.0938 121.768 44.2266 122.533 44.2266C123.127 44.2266 123.65 44.1484 124.104 43.9922C124.557 43.8307 124.945 43.6094 125.268 43.3281C125.59 43.0417 125.848 42.7109 126.041 42.3359H126.135V44H129.291V35.9062C129.291 35.1927 129.153 34.5807 128.877 34.0703C128.601 33.5547 128.223 33.1328 127.744 32.8047C127.27 32.4766 126.726 32.2344 126.111 32.0781C125.502 31.9219 124.864 31.8438 124.197 31.8438C123.239 31.8438 122.395 31.9896 121.666 32.2812C120.942 32.5677 120.351 32.9792 119.893 33.5156C119.434 34.0469 119.127 34.6771 118.971 35.4062L122.049 35.6562C122.163 35.2604 122.398 34.9323 122.752 34.6719C123.106 34.4062 123.583 34.2734 124.182 34.2734C124.749 34.2734 125.187 34.4089 125.494 34.6797C125.807 34.9505 125.963 35.3333 125.963 35.8281V35.875C125.963 36.1302 125.867 36.3229 125.674 36.4531C125.481 36.5833 125.171 36.6823 124.744 36.75C124.317 36.8125 123.755 36.8802 123.057 36.9531C122.463 37.0104 121.895 37.1094 121.354 37.25C120.817 37.3906 120.338 37.599 119.916 37.875C119.494 38.151 119.161 38.5156 118.916 38.9688C118.671 39.4219 118.549 39.9818 118.549 40.6484C118.549 41.4401 118.721 42.1016 119.064 42.6328C119.413 43.1589 119.887 43.5573 120.486 43.8281ZM124.783 41.6406C124.408 41.8333 123.976 41.9297 123.486 41.9297C122.976 41.9297 122.554 41.8125 122.221 41.5781C121.893 41.3385 121.729 40.9922 121.729 40.5391C121.729 40.2266 121.809 39.9661 121.971 39.7578C122.132 39.5443 122.359 39.375 122.65 39.25C122.942 39.125 123.283 39.0339 123.674 38.9766C123.856 38.9505 124.059 38.9219 124.283 38.8906C124.507 38.8542 124.731 38.8151 124.955 38.7734C125.179 38.7266 125.38 38.6771 125.557 38.625C125.739 38.5677 125.882 38.5052 125.986 38.4375V39.7109C125.986 40.1328 125.88 40.5104 125.666 40.8438C125.452 41.1771 125.158 41.4427 124.783 41.6406ZM135.201 44V37.0625C135.206 36.5469 135.303 36.1068 135.49 35.7422C135.683 35.3724 135.949 35.0911 136.287 34.8984C136.631 34.7057 137.027 34.6094 137.475 34.6094C138.141 34.6094 138.665 34.8177 139.045 35.2344C139.425 35.6458 139.613 36.2188 139.607 36.9531V44H142.936V36.3594C142.936 35.4271 142.764 34.625 142.42 33.9531C142.076 33.276 141.594 32.7552 140.975 32.3906C140.355 32.026 139.628 31.8438 138.795 31.8438C137.904 31.8438 137.146 32.0495 136.521 32.4609C135.896 32.8672 135.451 33.4193 135.186 34.1172H135.045V32H131.873V44H135.201ZM151.941 34.5V32H149.684V29.125H146.355V32H144.715V34.5H146.355V40.75C146.35 41.5365 146.514 42.1875 146.848 42.7031C147.181 43.2188 147.647 43.599 148.246 43.8438C148.85 44.0885 149.553 44.1953 150.355 44.1641C150.788 44.1484 151.155 44.1042 151.457 44.0312C151.759 43.9635 151.993 43.9036 152.16 43.8516L151.637 41.375C151.553 41.3906 151.434 41.4141 151.277 41.4453C151.121 41.4714 150.965 41.4844 150.809 41.4844C150.585 41.4844 150.387 41.4505 150.215 41.3828C150.048 41.3151 149.918 41.1979 149.824 41.0312C149.73 40.8594 149.684 40.6198 149.684 40.3125V34.5H151.941ZM154.727 43.6562C155.096 44.0208 155.539 44.2031 156.055 44.2031C156.393 44.2031 156.703 44.1198 156.984 43.9531C157.266 43.7812 157.492 43.5547 157.664 43.2734C157.841 42.987 157.93 42.6719 157.93 42.3281C157.93 41.8177 157.742 41.3802 157.367 41.0156C156.992 40.651 156.555 40.4688 156.055 40.4688C155.539 40.4688 155.096 40.651 154.727 41.0156C154.362 41.3802 154.18 41.8177 154.18 42.3281C154.18 42.8438 154.362 43.2865 154.727 43.6562ZM160.662 32V48.5H163.99V42.0781H164.092C164.243 42.4115 164.462 42.7422 164.748 43.0703C165.035 43.3932 165.402 43.6615 165.85 43.875C166.303 44.0885 166.852 44.1953 167.498 44.1953C168.41 44.1953 169.232 43.9609 169.967 43.4922C170.706 43.0182 171.29 42.3229 171.717 41.4062C172.149 40.4844 172.365 39.3542 172.365 38.0156C172.365 36.6406 172.144 35.4974 171.701 34.5859C171.258 33.6693 170.667 32.9844 169.928 32.5312C169.188 32.0729 168.381 31.8438 167.506 31.8438C166.834 31.8438 166.271 31.9583 165.818 32.1875C165.37 32.4115 165.006 32.6927 164.725 33.0312C164.449 33.3646 164.238 33.6927 164.092 34.0156H163.943V32H160.662ZM164.217 39.8672C164.019 39.3359 163.92 38.7135 163.92 38C163.92 37.2865 164.019 36.6667 164.217 36.1406C164.415 35.6146 164.699 35.2083 165.068 34.9219C165.443 34.6354 165.902 34.4922 166.443 34.4922C166.99 34.4922 167.451 34.6406 167.826 34.9375C168.201 35.2344 168.485 35.6458 168.678 36.1719C168.87 36.6979 168.967 37.3073 168.967 38C168.967 38.6979 168.868 39.3151 168.67 39.8516C168.477 40.3828 168.193 40.7995 167.818 41.1016C167.443 41.3984 166.985 41.5469 166.443 41.5469C165.907 41.5469 165.451 41.401 165.076 41.1094C164.701 40.8125 164.415 40.3984 164.217 39.8672ZM177.912 44V28H174.584V44H177.912ZM0 22.6506L12.5 1H37.5L50 22.6506L37.5 44.3013H12.5L0 22.6506ZM35 23C35 28.5228 30.5228 33 25 33C19.4772 33 15 28.5228 15 23C15 17.4771 19.4772 13 25 13C30.5228 13 35 17.4771 35 23Z" fill="white"/>
</svg>
